/* XPM */
static char *icon[] = {
/* columns rows colors chars-per-pixel */
"48 48 218 2 ",
"   c #0E1008",
".  c #1B1C11",
"X  c #353726",
"o  c #343728",
"O  c #363828",
"+  c #3A3C29",
"@  c #53573C",
"#  c #54583E",
"$  c #585B3E",
"%  c #4B4A4E",
"&  c #545741",
"*  c #565943",
"=  c #5B5F40",
"-  c #575A48",
";  c #4B4B50",
":  c #555557",
">  c #57575C",
",  c #58575B",
"<  c #58585C",
"1  c #5D5C60",
"2  c #646466",
"3  c #0D679F",
"4  c #0466A1",
"5  c #0A67A1",
"6  c #0669A4",
"7  c #0B6DA5",
"8  c #116FA4",
"9  c #196EA1",
"0  c #0E70A8",
"q  c #1371A6",
"w  c #1C75A5",
"e  c #1F78A7",
"r  c #1575A9",
"t  c #1A76A8",
"y  c #1D79AA",
"u  c #2174A1",
"i  c #237CAA",
"p  c #2A7FAC",
"a  c #337EA2",
"s  c #2C81AD",
"d  c #3C81A5",
"f  c #3385AF",
"g  c #3887AF",
"h  c #3D89AB",
"j  c #2582B1",
"k  c #2C83B1",
"l  c #3386B0",
"z  c #3588B2",
"x  c #3C8CB3",
"c  c #3992B9",
"v  c #4286A2",
"b  c #5592AD",
"n  c #418EB3",
"m  c #4592B6",
"M  c #4C95B5",
"N  c #4F98B2",
"B  c #4695BA",
"V  c #4C97B9",
"C  c #4C99BA",
"Z  c #5499B5",
"A  c #5B9BB4",
"S  c #539BBA",
"D  c #599EBC",
"F  c #5DA1BD",
"G  c #69A2AA",
"H  c #64A0B5",
"J  c #6FA2B6",
"K  c #63A4BD",
"L  c #68A5BD",
"P  c #6BA8BE",
"I  c #7CA6B0",
"U  c #74ABB2",
"Y  c #75AEBE",
"T  c #7DB2BB",
"R  c #56A2C2",
"E  c #5CA8C4",
"W  c #64A6C0",
"Q  c #68A6C0",
"!  c #65ACC2",
"~  c #6BABC2",
"^  c #73AFC3",
"/  c #7BAEC0",
"(  c #69B0C5",
")  c #6DB5CB",
"_  c #75B1C5",
"`  c #7BB3C5",
"'  c #71B7C9",
"]  c #7BB5C9",
"[  c #77BDCC",
"{  c #7BBBCA",
"}  c #7EC2CD",
"|  c #7CC4D7",
" . c #7CC5D8",
".. c #848484",
"X. c #94B5AC",
"o. c #80AEBD",
"O. c #95BFB8",
"+. c #A5BEB2",
"@. c #B8CBB0",
"#. c #BFD6B2",
"$. c #B8D8BC",
"%. c #C2D8BB",
"&. c #CAD8BC",
"*. c #DDE6A3",
"=. c #CFE0B7",
"-. c #D6E5B9",
";. c #E0EAA7",
":. c #E3ECAC",
">. c #EAEFAE",
",. c #EAF3AA",
"<. c #EEF8AF",
"1. c #E5EDB3",
"2. c #E8EFB5",
"3. c #E6EEBB",
"4. c #E8EFBE",
"5. c #E8F0B6",
"6. c #EFF9B1",
"7. c #E6F0BB",
"8. c #EAF1BB",
"9. c #F2F5B6",
"0. c #F2FCB4",
"q. c #F2F5BB",
"w. c #F4FCBB",
"e. c #FAFFBD",
"r. c #82B4C2",
"t. c #8BBCC5",
"y. c #84BBCA",
"u. c #8ABDCA",
"i. c #98BFC0",
"p. c #86C4CA",
"a. c #8FC2CD",
"s. c #9DC4C3",
"d. c #9BCAC7",
"f. c #92C4CC",
"g. c #9BC6CC",
"h. c #9BD4CF",
"j. c #83C1D2",
"k. c #8DC7D2",
"l. c #87CEDC",
"z. c #98CBD0",
"x. c #94D5D8",
"c. c #99D7DC",
"v. c #A2C1C4",
"b. c #AAC7C5",
"n. c #AACCC5",
"m. c #A7CFCE",
"M. c #AECDCA",
"N. c #B0CBC6",
"B. c #B8CEC2",
"V. c #B4CDCA",
"C. c #A2D4CC",
"Z. c #B7D4C6",
"A. c #B6DAC4",
"S. c #B4D4CD",
"D. c #BBD6CD",
"F. c #B2DDCE",
"G. c #BDD9CC",
"H. c #AAD0D5",
"J. c #AFD9D4",
"K. c #A7DBD9",
"L. c #B9D5D0",
"P. c #B1D8D6",
"I. c #B9DCD1",
"U. c #C1D4C7",
"Y. c #C3DBC7",
"T. c #CAD8C2",
"R. c #C5DCCC",
"E. c #CBDDCC",
"W. c #C2DBD0",
"Q. c #CDDFD2",
"!. c #C2E3C4",
"~. c #CEE1C7",
"^. c #CDE1CD",
"/. c #C6E9C8",
"(. c #D3E4C7",
"). c #DBE9C4",
"_. c #D3EECF",
"`. c #DCF1C7",
"'. c #D9F3C9",
"]. c #CDE1D5",
"[. c #CCECD7",
"{. c #CAE2DE",
"}. c #D4E7D3",
"|. c #DCE6D3",
" X c #D2EFD3",
".X c #DAEAD4",
"XX c #D1F1D0",
"oX c #E8EFC2",
"OX c #E2EECF",
"+X c #EBF2C4",
"@X c #E1F3CA",
"#X c #EEF4CB",
"$X c #F2F5C4",
"%X c #FBFEC3",
"&X c #F1F5CD",
"*X c #F6FACC",
"=X c #FCFDCC",
"-X c #E4EDD4",
";X c #E4EEDB",
":X c #E7F5D2",
">X c #EEF4D3",
",X c #E9F8D2",
"<X c #EDF3DC",
"1X c #F1F6D3",
"2X c #F6F9D3",
"3X c #FDFDD4",
"4X c #F3F7DB",
"5X c #F4F8DD",
"6X c #FDFDDB",
"7X c #E1EFE3",
"8X c #EEF8E5",
"9X c #F3F7E0",
"0X c #F6F9E4",
"qX c #FBFCE3",
"wX c #F7FAE9",
"eX c #F9FBEC",
"rX c #FBFDF3",
"tX c #FDFEFA",
/* pixels */
"..2 , , , , , < > > > > > > , , , , , , , , , , , , , , , , , : , , , , , , > > > > > < , , 2 ..",
"2   $ @ @ @ @ $ # # & * * * * - - - - * - - - - - - - - - - - - - * * * * * & @ # # # # @ $ . 2 ",
"1 + e.6.0.w.e.e.%X%X%X=X%X=X=X=X3X3X3X3X3X3X6X6X3X6X3X6X3X3X=X3X3X=X=X=X%X=X%X%Xe.e.w.0.0.e.= < ",
"1 O ,.;.;.;.;.:.:.1.1.2.3.3.4.4.4.8.oXoX+X+X+X+X+X+X+X+X+XoXoXoX4.4.3.3.2.2.1.1.:.;.:.:.*.6.@ < ",
"1 X <.;.>.:.1.1.5.5.8.8.+X8.oX+X+X$X+X#X#X#X#X#X#X#X#X#X#X#X$X+X+X+X+Xq.8.8.5.5.2.2.>.:.;.0.@ , ",
"1 X <.;.:.>.1.1.5.5.8.8.8.+X+X+X#X#X#X#X&X#X#X#X1X#X#X#X#X#X#X#X+X+X+X+X+X8.8.8.5.2.1.:.:.0.# < ",
"1 X 6.:.:.>.>.5.8.8.8.+X+X+X+X#X#X#X#X&X&X&X#X1X1X>X1X&X1X#X#X#X#X#X#X+X8.+X8.8.7.1.1.>.:.e.@ < ",
"1 X 6.:.1.1.5.5.8.8.8.+X+X+X#X#X#X#X&X>X>X>X1X>X1X>X>X1X#X>X#X&X#X#X$X+X+X8.8.8.7.5.2.1.:.0.@ , ",
"1 X <.:.>.1.5.7.8.8.+X+X+X#X#X#X#X#X2X3X3X6X3X6X3X6X6X3X2X2X1X&X#X#X#X+X+X+X+X8.8.7.5.1.>.w.# > ",
"1 X 0.:.1.5.5.8.8.8.+X+X+X#X*X=X3X>X|.^.D.V.S.m.m.S.G.I.}..X<X2X2X*X#X#X#X+X+X8.8.5.5.2.:.w.# > ",
"1 X 0.:.1.5.8.8.8.oX+X$X*X#X~.s.Y K S M V C D D F F W ! ~ ' y.z.J.[.:X&X$X+X+X+X8.8.7.5.:.%X# > ",
"1 X 0.1.1.5.8.oXoX$X*X`.s.A x z x m V C S S D R F W ! ^ _ _ ` ` ] { k.K. X#X$XoXoX8.7.1.:.%X# > ",
"1 O 6.1.1.7.7.7.%X).T g s z n n x n M S P / / o.r.r.u.` _ ^ _ ] y.u.u.y.j.c.[.#Xq.oX8.5.1.%X@ > ",
"1 X w.1.5.3.q.q.O.f y f x f z M r.M.Q.;X9XqXqXqXqXqXqX9X;X].L.g.y.{ u.g.f.u.| K.'.q.8.8.:.%X& > ",
"1 X w.1.1.q.3.A r p f s k P D.:X6XqXqXqX9X9X0XwX0X0X0X0XqXqX6X5X-XW.g.u.a.a.t.] l.XX9.3.1.%X* > ",
"1 O w.1.8.-.g r p s i F R.3X3X5X4X4X5X0XqXwXwXwXwXwX0XwX0X9X9X5X5X6X>X^.g.y.u.t.] | XX5.1.%X# < ",
"1 X w.>.2.h 0 s i j d.2X3X>X1X4X5X9X0X0XwXwXwXeXwXeXwXwX0X0X0X5X4X4X4X2X>XV.] y.y./  .'.>.%X& , ",
"1 o q.9.G 7 i y j F.=X>X>X1X4X5X5X0X0X0XwXeXeXeXeXeXeXwXwXeXqX0X9X4X4X1X1X2XG.] ] ` ^ x.8.%X* < ",
"1 o e.%.0 t e y m.=X#X>X1X4X4X5X0X0XwXwXwXeXrXeXrXeXeXeXwXwXqX9X4X4X4X4X&X>X*XN._ ] ^ ) /.%X* > ",
"1 o e.G 6 e 0 ! =X#X#X1X1X4X4X5X0X0X0XeXeXeXrXrXrXrXrXeXeXwXwX0XqX5X4X1X1X1X&X#Xt.^ _ Q h.%X# < ",
"< O w.a 7 t r F.*X#X&X1X1X4X5X5X0X0XwXeXrXrXrXrXrXrXrXrXeXwXwXwX0X4X4X4X1X1X#X=XZ.! ^ Q } =X# < ",
"1 + 3.w q 9 j  X$X#X>X1X1X4X5X0X0X0XeXeXeXrXrXtXtXrXrXrXrXeXqXwX0X9X4X4X1X>X#X&X~.~ ~ Q ' *X$ , ",
"< + 7.u 0 r i _.#X#X&X1X4X4X4X0X0X0XeXeXrXrXrXtXtXtXrXrXrXeXwXwXqX9X4X4X1X1X>X&X(.~ ~ W ' *X* , ",
"1 o e.v 7 r 0 C.=X#X&X1X1X4X5X5X0XeXeXeXrXrXtXtXtXtXrXrXrXeXwXwX9XqX4X4X4X1X#X*X~.Q Q K [ =X* > ",
"1 o %XX.4 w 8 c ,X#X#X1X4X4X5X0XwXwXeXeXrXtXtXtXtXtXtXrXrXeXeXwX0X5X5X2X1X1X>X*XZ.K Q D p.=X* , ",
"1 o $X1.a 7 e 7 ( 3X&X>X1X5X5X0XqXwXeXeXrXrXtXtXtXtXtXrXeXeXeX0X0X0X5X4X4X1X#X*Xs.R K D C.%X& , ",
"1 O w.q.@.3 q e 0 [ 3X&X>X5X5X5X9XwXwXrXrXrXrXtXtXtXrXrXrXeXwX0X0X5X5X4X1X1X&X#XY D F R !.%X& > ",
"1 o $X1.e.X.4 t y q ( 4X3X<X4X0XqXwXwXeXeXrXtXrXtXtXrXrXeXeXwXwX0X5X4X4X1X>X2XY.D D S ) 7.%X* > ",
"1 O $X1.7.%XX.5 r i r B [.6X5X0X9XwXwXwXeXrXrXrXrXrXrXrXeXeXwX0X0X5X4X4X1X1X&XY S D V C.5.%X* > ",
"1 O w.1.8.3.%X+.9 q i w j f.5XqX9X0XwXwXeXrXrXeXrXeXrXeXeXwXwX0X0X9X4X1X>X3Xn.V D V E `.2.=X* > ",
"1 O w.3.8.8.4.*X&.d 7 i i t B P.qXqXqXwXwXeXeXrXrXeXeXeXwXwX0X0X9X4X4X1X3XE.S S S m C.e.1.%X* , ",
"1 o w.2.8.8.8.oX*X+XI 9 r s i y S H.8XeXeXwXwXeXeXeXwXeXwX0X0X0X4X4X1X1XW.Z V S n { $X4.2.%X# , ",
"1 X w.1.7.8.8.+X+X#X3XT.b r y p p i m y.{.8XrXeXeXeXqXeX0X0X0XqXqX6X5X3Xi.x S B ~ @X8.8.2.%X& > ",
"1 o w.1.5.8.8.+X+X#X+X=X=XB.b t y s p i k B ` H.{.7X8XqXqX0X<X.XD.` ~ I.OXA m x F.%X7.8.1.%X& > ",
"< o q.1.5.8.8.+X+X+X#X#X>X3X2XU.J p t i k s s s g x C F L F Z n z x n x L K n x ! +X8.8.1.%X& > ",
"1 o w.1.5.8.8.8.+X+X#X#X#X>X1X6X6X|.v.A f i p s f z g z z z x x x x z z z x n n l A.q.7.1.%X# , ",
"1 O w.1.2.7.8.8.$X+X+X#X#X&X&X>X>X6X6X6X-XV./ A n f p s s s f g M H i.i.A k z x z F q.2.:.%X@ > ",
"1 X 6.1.2.5.8.8.+X+X+X+X#X&X&X1X>X4X<X4X6XqXqX6X<X|.E.D.b.V.R.E.OX2X3X=X#XB.H l k k $.0.:.%X# > ",
"1 X 0.:.1.5.7.7.4.8.+X#X#X#X>X>X1X1X1X4X4X<X<X1X5X6X6X6X6X6X6X3X2X#X#X+X+X*X$X%.U i N 5.1.w.# > ",
"1 X 6.1.1.1.5.8.8.+X+X+X+X#X#X#X>X&X1X1X2X1X4X4X1X1X4X<X1X>X1X>X&X#X#X#X#XoX4.q.w.=.U #.>.w.# > ",
"1 X 6.:.>.1.5.5.8.8.+X+X+X#X#X#X#X1X&X1X1X1X1X1X1X1X1X1X1X&X1X&X#X#X$X+X+X+XoX7.8.q.6.1.:.w.# > ",
"1 X 6.:.:.1.5.5.8.8.8.+X+X+X$X#X#X&X&X1X1X1X1X1X1X1X1X1X1X1X#X#X#X#X#X+X+X+X8.8.7.2.1.1.:.w.# < ",
"1 X 6.:.:.1.1.5.8.8.8.8.+X+X+X#X#X#X#X&X#X&X1X1X1X&X&X>X#X#X#X#X#X+X+X+Xq.oX8.8.7.5.1.>.;.e.@ < ",
"1 X <.;.:.>.1.2.2.8.8.8.8.+X+X$X+X#X#X#X#X#X#X#X#X>X#X&X#X#X#X#X#X+X+X+XoX8.7.7.5.1.>.:.;.0.@ < ",
"1 X ,.*.;.:.;.:.1.1.2.3.3.4.4.oXoXoX+X+X+X+X+X+X+X+X+X#X+X+X+X+X8.8.4.4.3.3.1.1.:.:.;.;.*.0.@ , ",
"1 + e.6.w.w.e.%X%X%X%X%X=X=X=X3X3X3X3X6X6X6X6X6X6X6X6X6X6X3X3X3X3X3X=X=X=X%X%X%X%Xe.e.e.0.%X$ , ",
"2   $ @ @ @ @ & & & $ * * * * - * - - * - - - - - * - - = - * * * - - * * * & * & & # @ @ $ . 2 ",
".., % % ; ; ; % ; ; % % % % % % % % % % % % % % % % % % % % % % % % % % % % % ; % ; ; ; ; % : .."
};
